<?xml version="1.0" encoding="utf-8"?>
<!-- Generator: Adobe Illustrator 28.3.0, SVG Export Plug-In . SVG Version: 6.00 Build 0)  -->
<svg version="1.1" id="_x31__3_" xmlns="http://www.w3.org/2000/svg" xmlns:xlink="http://www.w3.org/1999/xlink" x="0px" y="0px"
	 viewBox="0 0 249.9 249.9" style="enable-background:new 0 0 249.9 249.9;" xml:space="preserve">
<style type="text/css">
	.st0{fill:#231F20;}
	.st1{fill:#01A650;}
	.st2{fill:url(#_x35_-simple-outer_00000069356466811436836630000004112229296994406576_);}
	.st3{fill:url(#_x35_-simple-inner_00000030445980149988179750000014037386385169878161_);}
	.st4{fill:#DC2B25;}
	.st5{fill:url(#_x39_-simple-outer_00000145745059160645598840000015873705321193660823_);}
	.st6{fill:url(#_x39_-simple-inner_00000067221789260508281940000010827157829939296403_);}
	.st7{fill:url(#_x31_1-simple-outer_00000146486978241012380130000015573753262461535900_);}
	.st8{fill:url(#_x31_1-simple-inner_00000048489707453539513530000013102556075500056712_);}
	.st9{fill:url(#_x31_6-simple-outer_00000003064528515281041870000010310255311281455016_);}
	.st10{fill:url(#_x31_6-simple-inner_00000135684312916454535860000007256203175659773614_);}
	.st11{fill:url(#_x31_9-simple-outer_00000173856053806294927860000015551898535984350353_);}
	.st12{fill:url(#_x31_9-simple-inner_00000101099991556974785100000007223208640056496574_);}
	.st13{fill:url(#_x31_7-simple-outer_00000152226312240722015030000003262455295517524396_);}
	.st14{fill:url(#_x31_7-simple-inner_00000031889413808696286350000016353879194940674211_);}
	.st15{fill:url(#_x31_5-simple-outer_00000012435416414507838140000005408470717515424907_);}
	.st16{fill:url(#_x31_5-simple-inner_00000181065244437438854130000015657938139793859496_);}
	.st17{fill:url(#_x36_-simple-outer_00000105427327595053138760000001086390839033197238_);}
	.st18{fill:url(#_x36_-simple-inner_00000109009219356939628000000014221518821419551158_);}
	.st19{fill:url(#_x34_-simple-outer_00000031176846029374782160000000177925264469394078_);}
	.st20{fill:url(#_x34_-simple-inner_00000124158691460989513410000004102901649751802004_);}
	.st21{fill:url(#_x31_-simple-outer_00000098941910736674779110000003656044641184646053_);}
	.st22{fill:url(#_x31_-simple-inner_00000168812022513341039460000007875000004579752612_);}
	.st23{fill:none;stroke:#01A650;stroke-width:5;stroke-miterlimit:10;}
	.st24{fill:#FFFFFF;}
</style>
<path id="_x31__1_" class="st0" d="M239.6,87.7c-3.9-12.2-9.8-23.5-17.1-33.6C215,43.9,206,34.9,195.8,27.4
	c-10.1-7.4-21.4-13.2-33.6-17.1c-11.7-3.8-24.2-5.9-37.3-5.9c-13,0-25.5,2.1-37.2,5.9c-12.2,3.9-23.5,9.8-33.6,17.1
	c-10.2,7.4-19.2,16.4-26.7,26.7C20,64.2,14.2,75.5,10.3,87.7c-3.8,11.7-5.9,24.2-5.9,37.2s2.1,25.5,5.9,37.3
	c3.9,12.2,9.8,23.5,17.1,33.6c7.4,10.2,16.4,19.2,26.7,26.7c10.1,7.4,21.4,13.2,33.6,17.1c11.7,3.8,24.2,5.9,37.2,5.9
	c9.2,0,21.8-0.9,37.3-5.9c12.2-3.9,23.5-9.8,33.6-17.1C206,215,215,206,222.4,195.8c7.4-10.1,13.2-21.4,17.1-33.6
	c3.8-11.7,5.9-24.2,5.9-37.3C245.4,111.9,243.4,99.4,239.6,87.7z"/>
<g id="ZONE_DE_TIR">
	<g id="score-5">
		<path id="_x35_-double" class="st1" d="M126.7,40v-7.3c-9.9,0-19.5,1.6-28.5,4.5l2.3,7C108.8,41.4,117.6,40,126.7,40z"/>
		<path id="_x35_-triple" class="st1" d="M126.7,74.9v-7.3c-6.2,0-12.1,1-17.7,2.8l2.2,6.9C116.2,75.8,121.4,74.9,126.7,74.9z"/>
		
			<linearGradient id="_x35_-simple-outer_00000062184961408479554060000013038918309013832600_" gradientUnits="userSpaceOnUse" x1="147.7596" y1="247.7843" x2="26.1635" y2="63.9843" gradientTransform="matrix(1 0 0 -1 0 252)">
			<stop  offset="8.064520e-02" style="stop-color:#FFFEFC"/>
			<stop  offset="1" style="stop-color:#E1D5B7"/>
		</linearGradient>
		<path id="_x35_-simple-outer" style="fill:url(#_x35_-simple-outer_00000062184961408479554060000013038918309013832600_);" d="
			M126.7,67.6V40c-9.2,0-18,1.5-26.2,4.1l8.6,26.3C114.6,68.6,120.6,67.6,126.7,67.6z"/>
		
			<linearGradient id="_x35_-simple-inner_00000067198884919633546180000016033812587221619585_" gradientUnits="userSpaceOnUse" x1="172.3157" y1="231.5401" x2="50.7187" y2="47.7385" gradientTransform="matrix(1 0 0 -1 0 252)">
			<stop  offset="8.064520e-02" style="stop-color:#FFFEFC"/>
			<stop  offset="1" style="stop-color:#E1D5B7"/>
		</linearGradient>
		<path id="_x35_-simple-inner" style="fill:url(#_x35_-simple-inner_00000067198884919633546180000016033812587221619585_);" d="
			M126.7,74.9c-5.4,0-10.6,0.9-15.4,2.4l15.4,47.5V74.9z"/>
	</g>
	<g id="score-12">
		<path id="_x31_2-double" class="st4" d="M100.5,44.1l-2.3-7c-9.3,3-17.9,7.5-25.7,13.1l4.3,5.9C84,51,92,46.9,100.5,44.1z"/>
		<path id="_x31_2-triple" class="st4" d="M111.3,77.3l-2.2-6.9c-5.8,1.9-11.1,4.6-15.9,8.1l4.3,5.9C101.6,81.4,106.3,79,111.3,77.3
			z"/>
		<path id="_x31_2-simple-outer" d="M109.1,70.7l-8.3-26.4C92.4,46.9,84.3,50.9,77,56l16,22.5C98,75,103.4,72.4,109.1,70.7z"/>
		<path id="_x31_2-simple-inner" d="M126.5,124.9l-14.9-47.6c-4.9,1.6-9.7,3.9-14,6.9L126.5,124.9z"/>
	</g>
	<g id="score-9">
		<path id="_x39_-double" class="st1" d="M76.9,56.2l-4.3-5.9C64.8,56,57.9,62.9,52.2,70.7l5.9,4.3C63.4,67.7,69.7,61.4,76.9,56.2z"
			/>
		<path id="_x39_-triple" class="st1" d="M97.4,84.5l-4.3-5.9c-4.8,3.5-9.1,7.8-12.6,12.6l5.9,4.3C89.5,91.3,93.2,87.6,97.4,84.5z"
			/>
		
			<linearGradient id="_x39_-simple-outer_00000070100390422021860640000012989916166748260789_" gradientUnits="userSpaceOnUse" x1="131.0034" y1="258.8702" x2="9.4068" y2="75.0692" gradientTransform="matrix(1 0 0 -1 0 252)">
			<stop  offset="8.064520e-02" style="stop-color:#FFFEFC"/>
			<stop  offset="1" style="stop-color:#E1D5B7"/>
		</linearGradient>
		<path id="_x39_-simple-outer" style="fill:url(#_x39_-simple-outer_00000070100390422021860640000012989916166748260789_);" d="
			M93.2,78.6L76.9,56.2C69.7,61.4,63.4,67.8,58.1,75l22.4,16.3C84,86.4,88.3,82.1,93.2,78.6z"/>
		
			<linearGradient id="_x39_-simple-inner_00000034799156095697006880000014843878081574006155_" gradientUnits="userSpaceOnUse" x1="167.8317" y1="234.5056" x2="46.2353" y2="50.705" gradientTransform="matrix(1 0 0 -1 0 252)">
			<stop  offset="8.064520e-02" style="stop-color:#FFFEFC"/>
			<stop  offset="1" style="stop-color:#E1D5B7"/>
		</linearGradient>
		<path id="_x39_-simple-inner" style="fill:url(#_x39_-simple-inner_00000034799156095697006880000014843878081574006155_);" d="
			M97.4,84.4c-4.2,3.1-8,6.8-11,11l40.4,29.3L97.4,84.4z"/>
	</g>
	<g id="score-14">
		<path id="_x31_4-double" class="st4" d="M58.1,74.9l-5.9-4.3C46.6,78.4,42.1,87,39.1,96.3l7,2.3C48.8,90,52.9,82.1,58.1,74.9z"/>
		<path id="_x31_4-triple" class="st4" d="M86.4,95.5l-5.9-4.3c-3.5,4.8-6.3,10.2-8.1,15.9l6.9,2.2C80.9,104.4,83.3,99.7,86.4,95.5z
			"/>
		<path id="_x31_4-simple-outer" d="M80.7,91.4L58.2,75.2c-5.2,7.1-9.2,15.1-12,23.7l26.3,8.5C74.4,101.6,77.2,96.2,80.7,91.4z"/>
		<path id="_x31_4-simple-inner" d="M126.7,124.9L86.4,95.4c-3,4.2-5.5,8.9-7.1,13.9L126.7,124.9z"/>
	</g>
	<g id="score-11">
		<path id="_x31_1-double" class="st1" d="M46.1,98.6l-7-2.3c-2.9,9-4.5,18.5-4.5,28.5h7.3C41.9,115.7,43.4,106.8,46.1,98.6z"/>
		<path id="_x31_1-triple" class="st1" d="M79.3,109.4l-6.9-2.2c-1.8,5.6-2.8,11.5-2.8,17.7h7.3C76.9,119.4,77.7,114.2,79.3,109.4z"
			/>
		
			<linearGradient id="_x31_1-simple-outer_00000132085290953210509800000015163474715610003642_" gradientUnits="userSpaceOnUse" x1="134.6708" y1="256.4438" x2="13.0742" y2="72.643" gradientTransform="matrix(1 0 0 -1 0 252)">
			<stop  offset="8.064520e-02" style="stop-color:#FFFEFC"/>
			<stop  offset="1" style="stop-color:#E1D5B7"/>
		</linearGradient>
		<path id="_x31_1-simple-outer" style="fill:url(#_x31_1-simple-outer_00000132085290953210509800000015163474715610003642_);" d="
			M72.4,107.1l-26.3-8.6c-2.7,8.3-4.1,17.1-4.1,26.2h27.7C69.6,118.6,70.6,112.7,72.4,107.1z"/>
		
			<linearGradient id="_x31_1-simple-inner_00000030445080990242763300000000121668388393527456_" gradientUnits="userSpaceOnUse" x1="168.537" y1="234.0389" x2="46.9407" y2="50.2384" gradientTransform="matrix(1 0 0 -1 0 252)">
			<stop  offset="8.064520e-02" style="stop-color:#FFFEFC"/>
			<stop  offset="1" style="stop-color:#E1D5B7"/>
		</linearGradient>
		<path id="_x31_1-simple-inner" style="fill:url(#_x31_1-simple-inner_00000030445080990242763300000000121668388393527456_);" d="
			M126.7,124.8L126.7,124.8l-47.5-15.4c-1.6,4.9-2.4,10-2.4,15.4H126.7L126.7,124.8z"/>
	</g>
	<g id="score-8">
		<path id="_x38_-double" class="st4" d="M41.9,124.8h-7.3c0,9.9,1.6,19.5,4.5,28.5l7-2.3C43.4,142.8,41.9,134,41.9,124.8z"/>
		<path id="_x38_-triple" class="st4" d="M76.9,124.8h-7.3c0,6.2,1,12.1,2.8,17.7l6.9-2.2C77.7,135.4,76.9,130.2,76.9,124.8z"/>
		<path id="_x38_-simple-outer" d="M69.6,124.7L41.9,125c0.1,8.8,1.6,17.7,4.4,26.2l26.2-8.8C70.5,136.5,69.6,130.6,69.6,124.7z"/>
		<path id="_x38_-simple-inner" d="M126.7,124.6L76.8,125c0.1,5.2,0.8,10.4,2.5,15.4L126.7,124.6z"/>
	</g>
	<g id="score-16">
		<path id="_x31_6-double" class="st1" d="M46.1,151l-7,2.3c3,9.3,7.5,17.9,13.1,25.7l5.9-4.3C52.9,167.5,48.8,159.6,46.1,151z"/>
		<path id="_x31_6-triple" class="st1" d="M79.3,140.2l-6.9,2.2c1.9,5.8,4.6,11.1,8.1,15.9l5.9-4.3
			C83.3,149.9,80.9,145.3,79.3,140.2z"/>
		
			<linearGradient id="_x31_6-simple-outer_00000032625879738888035720000002817445529008890040_" gradientUnits="userSpaceOnUse" x1="158.2703" y1="240.8282" x2="36.6759" y2="57.0305" gradientTransform="matrix(1 0 0 -1 0 252)">
			<stop  offset="8.064520e-02" style="stop-color:#FFFEFC"/>
			<stop  offset="1" style="stop-color:#E1D5B7"/>
		</linearGradient>
		<path id="_x31_6-simple-outer" style="fill:url(#_x31_6-simple-outer_00000032625879738888035720000002817445529008890040_);" d="
			M72.4,142.5L46.1,151c2.8,8.6,6.9,16.5,12.1,23.6l22.4-16.3C77,153.6,74.3,148.2,72.4,142.5z"/>
		
			<linearGradient id="_x31_6-simple-inner_00000072252798750352396980000005263628955322595990_" gradientUnits="userSpaceOnUse" x1="175.6238" y1="229.351" x2="54.027" y2="45.5499" gradientTransform="matrix(1 0 0 -1 0 252)">
			<stop  offset="8.064520e-02" style="stop-color:#FFFEFC"/>
			<stop  offset="1" style="stop-color:#E1D5B7"/>
		</linearGradient>
		<path id="_x31_6-simple-inner" style="fill:url(#_x31_6-simple-inner_00000072252798750352396980000005263628955322595990_);" d="
			M126.7,124.8L126.7,124.8l-47.5,15.4c1.6,5,4,9.7,7.1,13.9L126.7,124.8L126.7,124.8z"/>
	</g>
	<g id="score-7">
		<path id="_x37_-double" class="st4" d="M58.1,174.7l-5.9,4.3c5.7,7.8,12.6,14.7,20.4,20.4l4.3-5.9
			C69.7,188.2,63.4,181.9,58.1,174.7z"/>
		<path id="_x37_-triple" class="st4" d="M86.4,154.1l-5.9,4.3c3.5,4.8,7.8,9.1,12.6,12.6l4.3-5.9C93.2,162.1,89.5,158.4,86.4,154.1
			z"/>
		<path id="_x37_-simple-outer" d="M80.4,158.2l-22.2,16.6c5.2,7.1,11.7,13.3,19,18.5l16-22.6C88.2,167.2,84,163,80.4,158.2z"/>
		<path id="_x37_-simple-inner" d="M126.8,124.9L86.4,154c3,4.2,6.7,8,11,11.1L126.8,124.9z"/>
	</g>
	<g id="score-19">
		<path id="_x31_9-double" class="st1" d="M76.9,193.4l-4.3,5.9c7.7,5.6,16.4,10.1,25.7,13.1l2.3-7C92,202.7,84,198.6,76.9,193.4z"
			/>
		<path id="_x31_9-triple" class="st1" d="M97.4,165.2l-4.3,5.9c4.8,3.5,10.2,6.3,15.9,8.1l2.2-6.9
			C106.3,170.6,101.6,168.2,97.4,165.2z"/>
		
			<linearGradient id="_x31_9-simple-outer_00000074402189409887497780000011736053628807352232_" gradientUnits="userSpaceOnUse" x1="196.5183" y1="215.5241" x2="74.9236" y2="31.7261" gradientTransform="matrix(1 0 0 -1 0 252)">
			<stop  offset="8.064520e-02" style="stop-color:#FFFEFC"/>
			<stop  offset="1" style="stop-color:#E1D5B7"/>
		</linearGradient>
		<path id="_x31_9-simple-outer" style="fill:url(#_x31_9-simple-outer_00000074402189409887497780000011736053628807352232_);" d="
			M93.2,171l-16.3,22.4c7.1,5.2,15.1,9.3,23.6,12.1l8.6-26.3C103.3,177.3,98,174.5,93.2,171z"/>
		
			<linearGradient id="_x31_9-simple-inner_00000105419796544965533200000012000610858612031649_" gradientUnits="userSpaceOnUse" x1="193.2784" y1="217.671" x2="71.6822" y2="33.8706" gradientTransform="matrix(1 0 0 -1 0 252)">
			<stop  offset="8.064520e-02" style="stop-color:#FFFEFC"/>
			<stop  offset="1" style="stop-color:#E1D5B7"/>
		</linearGradient>
		<path id="_x31_9-simple-inner" style="fill:url(#_x31_9-simple-inner_00000105419796544965533200000012000610858612031649_);" d="
			M126.7,124.8L126.7,124.8l-29.3,40.4c4.2,3,8.9,5.5,13.9,7.1L126.7,124.8L126.7,124.8z"/>
	</g>
	<g id="score-3">
		<path id="_x33_-double" class="st4" d="M100.5,205.5l-2.3,7c9,2.9,18.5,4.5,28.5,4.5v-7.3C117.6,209.6,108.8,208.2,100.5,205.5z"
			/>
		<path id="_x33_-triple" class="st4" d="M111.3,172.3l-2.2,6.9c5.6,1.8,11.5,2.8,17.7,2.8v-7.3
			C121.4,174.7,116.2,173.8,111.3,172.3z"/>
		<path id="_x33_-simple-outer" d="M109.1,179.5l-8.7,26.3c8.3,2.8,17.2,4.3,26.2,4.3l0.2-27.7C120.7,182.4,114.8,181.4,109.1,179.5
			z"/>
		<path id="_x33_-simple-inner" d="M126.7,124.8l-15.4,47.5c4.9,1.6,10.2,2.5,15.4,2.4L126.7,124.8z"/>
	</g>
	<g id="score-17">
		<path id="_x31_7-double" class="st1" d="M126.7,209.6v7.3c9.9,0,19.5-1.6,28.5-4.5l-2.3-7C144.7,208.2,135.9,209.6,126.7,209.6z"
			/>
		<path id="_x31_7-triple" class="st1" d="M126.7,174.7v7.3c6.2,0,12.1-1,17.7-2.8l-2.2-6.9C137.3,173.8,132.1,174.7,126.7,174.7z"
			/>
		
			<linearGradient id="_x31_7-simple-outer_00000051373160056779417930000016124012091441779640_" gradientUnits="userSpaceOnUse" x1="229.4606" y1="193.7276" x2="107.8681" y2="9.9329" gradientTransform="matrix(1 0 0 -1 0 252)">
			<stop  offset="8.064520e-02" style="stop-color:#FFFEFC"/>
			<stop  offset="1" style="stop-color:#E1D5B7"/>
		</linearGradient>
		<path id="_x31_7-simple-outer" style="fill:url(#_x31_7-simple-outer_00000051373160056779417930000016124012091441779640_);" d="
			M126.7,182v27.7c9.2,0,18-1.5,26.2-4.1l-8.6-26.3C138.8,181,132.9,182,126.7,182z"/>
		
			<linearGradient id="_x31_7-simple-inner_00000011723539293980003040000012566081988810138261_" gradientUnits="userSpaceOnUse" x1="204.885" y1="209.9925" x2="83.2885" y2="26.1918" gradientTransform="matrix(1 0 0 -1 0 252)">
			<stop  offset="8.064520e-02" style="stop-color:#FFFEFC"/>
			<stop  offset="1" style="stop-color:#E1D5B7"/>
		</linearGradient>
		<path id="_x31_7-simple-inner" style="fill:url(#_x31_7-simple-inner_00000011723539293980003040000012566081988810138261_);" d="
			M126.7,124.8L126.7,124.8v49.9c5.4,0,10.6-0.9,15.4-2.4L126.7,124.8L126.7,124.8z"/>
	</g>
	<g id="score-2">
		<path id="_x32_-double" class="st4" d="M153,205.5l2.3,7c9.3-3,17.9-7.5,25.7-13.1l-4.3-5.9C169.5,198.6,161.5,202.7,153,205.5z"
			/>
		<path id="_x32_-triple" class="st4" d="M142.2,172.3l2.2,6.9c5.8-1.9,11.1-4.6,15.9-8.1l-4.3-5.9
			C151.9,168.2,147.2,170.6,142.2,172.3z"/>
		<path id="_x32_-simple-outer" d="M144.2,179.1l8.5,26.4c8.4-2.7,16.4-6.7,23.7-12l-16.2-22.4C155.2,174.7,149.8,177.3,144.2,179.1
			z"/>
		<path id="_x32_-simple-inner" d="M126.9,124.7l14.9,47.6c4.9-1.6,9.7-3.9,14-6.9L126.9,124.7z"/>
	</g>
	<g id="score-15">
		<path id="_x31_5-double" class="st1" d="M176.6,193.4l4.3,5.9c7.8-5.7,14.7-12.6,20.4-20.4l-5.9-4.3
			C190.1,181.9,183.8,188.2,176.6,193.4z"/>
		<path id="_x31_5-triple" class="st1" d="M156.1,165.2l4.3,5.9c4.8-3.5,9.1-7.8,12.6-12.6l-5.9-4.3
			C164,158.4,160.3,162.1,156.1,165.2z"/>
		
			<linearGradient id="_x31_5-simple-outer_00000152251956603542757710000011553067296140821670_" gradientUnits="userSpaceOnUse" x1="246.269" y1="182.6196" x2="124.6685" y2="-1.1871" gradientTransform="matrix(1 0 0 -1 0 252)">
			<stop  offset="8.064520e-02" style="stop-color:#FFFEFC"/>
			<stop  offset="1" style="stop-color:#E1D5B7"/>
		</linearGradient>
		<path id="_x31_5-simple-outer" style="fill:url(#_x31_5-simple-outer_00000152251956603542757710000011553067296140821670_);" d="
			M160.3,171l16.3,22.4c7.2-5.2,13.5-11.6,18.8-18.8L173,158.4C169.5,163.2,165.2,167.5,160.3,171z"/>
		
			<linearGradient id="_x31_5-simple-inner_00000027564064590481608480000016540484211419646375_" gradientUnits="userSpaceOnUse" x1="209.3813" y1="207.0199" x2="87.7825" y2="23.2157" gradientTransform="matrix(1 0 0 -1 0 252)">
			<stop  offset="8.064520e-02" style="stop-color:#FFFEFC"/>
			<stop  offset="1" style="stop-color:#E1D5B7"/>
		</linearGradient>
		<path id="_x31_5-simple-inner" style="fill:url(#_x31_5-simple-inner_00000027564064590481608480000016540484211419646375_);" d="
			M126.7,124.8l29.3,40.4c4.2-3.1,8-6.8,11-11L126.7,124.8L126.7,124.8z"/>
	</g>
	<g id="score-10">
		<path id="_x31_0-double" class="st4" d="M195.4,174.7l5.9,4.3c5.6-7.7,10.1-16.4,13.1-25.7l-7-2.3
			C204.7,159.6,200.6,167.5,195.4,174.7z"/>
		<path id="_x31_0-triple" class="st4" d="M167.1,154.1l5.9,4.3c3.5-4.8,6.3-10.2,8.1-15.9l-6.9-2.2
			C172.6,145.3,170.2,149.9,167.1,154.1z"/>
		<path id="_x31_0-simple-outer" d="M172.9,157.8l22.2,16.6c5.3-7,9.5-15,12.4-23.4l-26.2-9C179.3,147.8,176.5,153,172.9,157.8z"/>
		<path id="_x31_0-simple-inner" d="M126.8,124.6l40.2,29.6c3-4.2,5.6-8.9,7.2-13.8L126.8,124.6z"/>
	</g>
	<g id="score-6">
		<path id="_x36_-double" class="st1" d="M207.4,151l7,2.3c2.9-9,4.5-18.5,4.5-28.5h-7.3C211.6,134,210.1,142.8,207.4,151z"/>
		<path id="_x36_-triple" class="st1" d="M174.2,140.2l6.9,2.2c1.8-5.6,2.8-11.5,2.8-17.7h-7.3C176.6,130.2,175.8,135.4,174.2,140.2
			z"/>
		
			<linearGradient id="_x36_-simple-outer_00000092416283878188890120000018112750091737663158_" gradientUnits="userSpaceOnUse" x1="242.5983" y1="185.0408" x2="121.0032" y2="1.2422" gradientTransform="matrix(1 0 0 -1 0 252)">
			<stop  offset="8.064520e-02" style="stop-color:#FFFEFC"/>
			<stop  offset="1" style="stop-color:#E1D5B7"/>
		</linearGradient>
		<path id="_x36_-simple-outer" style="fill:url(#_x36_-simple-outer_00000092416283878188890120000018112750091737663158_);" d="
			M181.1,142.5l26.3,8.6c2.7-8.3,4.1-17.1,4.1-26.2h-27.7C183.9,131,182.9,136.9,181.1,142.5z"/>
		
			<linearGradient id="_x36_-simple-inner_00000021840850614385673670000002382933641859196562_" gradientUnits="userSpaceOnUse" x1="208.6618" y1="207.4909" x2="87.068" y2="23.6942" gradientTransform="matrix(1 0 0 -1 0 252)">
			<stop  offset="8.064520e-02" style="stop-color:#FFFEFC"/>
			<stop  offset="1" style="stop-color:#E1D5B7"/>
		</linearGradient>
		<path id="_x36_-simple-inner" style="fill:url(#_x36_-simple-inner_00000021840850614385673670000002382933641859196562_);" d="
			M174.2,140.2c1.6-4.9,2.4-10,2.4-15.4h-49.9L174.2,140.2z"/>
	</g>
	<g id="score-13">
		<path id="_x31_3-double" class="st4" d="M207.4,98.6c2.7,8.3,4.1,17.1,4.1,26.2h7.3c0-9.9-1.6-19.5-4.5-28.5L207.4,98.6z"/>
		<path id="_x31_3-triple" class="st4" d="M176.6,124.8h7.3c0-6.2-1-12.1-2.8-17.7l-6.9,2.2C175.8,114.2,176.6,119.4,176.6,124.8z"
			/>
		<path id="_x31_3-simple-outer" d="M184.3,124.9l27.7-0.6c-0.2-8.8-1.7-17.6-4.6-26.1l-26.1,9.1C183.2,113.1,184.2,119,184.3,124.9
			z"/>
		<path id="_x31_3-simple-inner" d="M126.7,124.7l49.9,0.1c0-5.2-0.8-10.4-2.4-15.4L126.7,124.7z"/>
	</g>
	<g id="score-4">
		<path id="_x34_-double" class="st1" d="M207.4,98.6l7-2.3c-3-9.3-7.5-17.9-13.1-25.7l-5.9,4.3C200.6,82.1,204.7,90,207.4,98.6z"/>
		<path id="_x34_-triple" class="st1" d="M174.2,109.4l6.9-2.2c-1.9-5.8-4.6-11.1-8.1-15.9l-5.9,4.3
			C170.2,99.7,172.6,104.4,174.2,109.4z"/>
		
			<linearGradient id="_x34_-simple-outer_00000067923668217552728560000001604027300934300045_" gradientUnits="userSpaceOnUse" x1="218.9862" y1="200.6621" x2="97.3911" y2="16.8635" gradientTransform="matrix(1 0 0 -1 0 252)">
			<stop  offset="8.064520e-02" style="stop-color:#FFFEFC"/>
			<stop  offset="1" style="stop-color:#E1D5B7"/>
		</linearGradient>
		<path id="_x34_-simple-outer" style="fill:url(#_x34_-simple-outer_00000067923668217552728560000001604027300934300045_);" d="
			M173,91.2c3.5,4.8,6.3,10.2,8.1,15.9l26.3-8.6c-2.8-8.6-6.9-16.5-12.1-23.6L173,91.2z"/>
		
			<linearGradient id="_x34_-simple-inner_00000022537937877352563650000004886223791614257307_" gradientUnits="userSpaceOnUse" x1="201.5765" y1="212.181" x2="79.98" y2="28.3802" gradientTransform="matrix(1 0 0 -1 0 252)">
			<stop  offset="8.064520e-02" style="stop-color:#FFFEFC"/>
			<stop  offset="1" style="stop-color:#E1D5B7"/>
		</linearGradient>
		<path id="_x34_-simple-inner" style="fill:url(#_x34_-simple-inner_00000022537937877352563650000004886223791614257307_);" d="
			M174.2,109.4c-1.6-5-4-9.7-7.1-13.9l-40.4,29.3L174.2,109.4z"/>
	</g>
	<g id="score-18">
		<path id="_x31_8-double" class="st4" d="M195.4,74.9l5.9-4.3c-5.7-7.8-12.6-14.7-20.4-20.4l-4.3,5.9
			C183.8,61.4,190.1,67.7,195.4,74.9z"/>
		<path id="_x31_8-triple" class="st4" d="M160.3,78.6l-4.3,5.9c4.2,3.1,8,6.8,11,11l5.9-4.3C169.5,86.4,165.2,82.1,160.3,78.6z"/>
		<path id="_x31_8-simple-outer" d="M172.8,91.3l22.5-16.1c-5.1-7.2-11.4-13.6-18.6-18.9l-16.4,22.3
			C165.2,82.1,169.4,86.4,172.8,91.3z"/>
		<path id="_x31_8-simple-inner" d="M126.6,124.7l40.4-29.3c-3.1-4.2-6.7-8-11-11.1L126.6,124.7z"/>
	</g>
	<g id="score-1">
		<path id="_x31_-double" class="st1" d="M176.6,56.2l4.3-5.9c-7.7-5.6-16.4-10.1-25.7-13.1l-2.3,7C161.5,46.9,169.5,51,176.6,56.2z
			"/>
		<path id="_x31_-triple" class="st1" d="M156.1,84.4l4.3-5.9c-4.8-3.5-10.2-6.3-15.9-8.1l-2.2,6.9C147.2,79,151.9,81.4,156.1,84.4z
			"/>
		
			<linearGradient id="_x31_-simple-outer_00000044163865431752875550000016937839496012908978_" gradientUnits="userSpaceOnUse" x1="180.7497" y1="225.9589" x2="59.1538" y2="42.159" gradientTransform="matrix(1 0 0 -1 0 252)">
			<stop  offset="8.064520e-02" style="stop-color:#FFFEFC"/>
			<stop  offset="1" style="stop-color:#E1D5B7"/>
		</linearGradient>
		<path id="_x31_-simple-outer" style="fill:url(#_x31_-simple-outer_00000044163865431752875550000016937839496012908978_);" d="
			M160.3,78.6l16.3-22.4c-7.1-5.2-15.1-9.3-23.6-12.1l-8.6,26.3C150.2,72.3,155.5,75.1,160.3,78.6z"/>
		
			<linearGradient id="_x31_-simple-inner_00000007427232254495105120000000023865057582393259_" gradientUnits="userSpaceOnUse" x1="183.9213" y1="223.8601" x2="62.3259" y2="40.061" gradientTransform="matrix(1 0 0 -1 0 252)">
			<stop  offset="8.064520e-02" style="stop-color:#FFFEFC"/>
			<stop  offset="1" style="stop-color:#E1D5B7"/>
		</linearGradient>
		<path id="_x31_-simple-inner" style="fill:url(#_x31_-simple-inner_00000007427232254495105120000000023865057582393259_);" d="
			M126.7,124.8L156,84.4c-4.2-3-8.9-5.5-13.9-7.1L126.7,124.8z"/>
	</g>
	<g id="score-20">
		<path id="_x32_0-double" class="st4" d="M153,44.1l2.3-7c-9-2.9-18.5-4.5-28.5-4.5V40C135.9,40,144.7,41.4,153,44.1z"/>
		<path id="_x32_0-triple" class="st4" d="M142.2,77.3l2.2-6.9c-5.6-1.8-11.5-2.8-17.7-2.8v7.3C132.1,74.9,137.3,75.8,142.2,77.3z"
			/>
		<path id="_x32_0-simple-outer" d="M144.4,70.4l8.5-26.4c-8.4-2.7-17.3-4.1-26.2-4.1l0.1,27.7C132.9,67.6,138.8,68.6,144.4,70.4z"
			/>
		<path id="_x32_0-simple-inner" d="M127.2,124.8l15.1-47.6c-4.9-1.5-10.2-2.4-15.4-2.4L127.2,124.8z"/>
	</g>
	<g id="bullseye">
		<path id="simple-bull" class="st23" d="M134.5,124.7c0,4.3-3.5,7.8-7.8,7.8s-7.8-3.5-7.8-7.8s3.5-7.8,7.8-7.8
			C131,116.9,134.5,120.4,134.5,124.7z"/>
		<path id="double-bull" class="st4" d="M132.2,124.8c0,3-2.5,5.5-5.5,5.5s-5.5-2.5-5.5-5.5s2.5-5.5,5.5-5.5
			C129.8,119.3,132.2,121.8,132.2,124.8z"/>
	</g>
</g>
<g id="Chiffre">
	<path class="st24" d="M170.4,34.4h2v-5.9h-1.7v-1c0.9-0.2,1.5-0.4,2.1-0.7h1.2v7.7h1.8v1.3h-5.4L170.4,34.4L170.4,34.4z"/>
	<path class="st24" d="M170.1,222.1c2.5-2.4,4.1-4,4.1-5.4c0-0.9-0.5-1.6-1.5-1.6c-0.7,0-1.3,0.5-1.7,1l-0.9-0.9
		c0.8-0.9,1.6-1.4,2.9-1.4c1.7,0,2.8,1.1,2.8,2.8c0,1.6-1.5,3.2-3.3,5.1c0.5,0,1.1-0.1,1.5-0.1h2.2v1.4h-6.1V222.1z"/>
	<path class="st24" d="M107.8,229.9c0.5,0.6,1.2,1,2.1,1c1,0,1.7-0.5,1.7-1.4S111,228,109,228v-1.2c1.8,0,2.3-0.6,2.3-1.4
		c0-0.7-0.5-1.2-1.3-1.2c-0.7,0-1.3,0.3-1.8,0.8l-0.8-1c0.8-0.7,1.6-1.1,2.7-1.1c1.7,0,2.9,0.8,2.9,2.4c0,1-0.6,1.7-1.6,2.1v0.1
		c1.1,0.3,1.9,1,1.9,2.2c0,1.6-1.4,2.6-3.1,2.6c-1.5,0-2.4-0.6-3-1.3L107.8,229.9z"/>
	<path class="st24" d="M223.5,79.7h-1.1V82h-1.5v-2.3h-4v-1.1l3.6-5.6h1.9v5.4h1.1V79.7z M220.8,78.5v-2c0-0.5,0-1.3,0.1-1.9h-0.1
		c-0.2,0.5-0.5,0.9-0.7,1.4l-1.6,2.5H220.8z"/>
	<path class="st24" d="M105.7,24.5c0.5,0.5,1.2,1,2.1,1c1,0,1.7-0.6,1.7-1.7s-0.7-1.7-1.7-1.7c-0.6,0-0.9,0.2-1.4,0.5l-0.8-0.5
		l0.3-4.4h4.8V19h-3.4l-0.2,2.2c0.4-0.2,0.7-0.3,1.2-0.3c1.5,0,2.8,0.9,2.8,2.8c0,2-1.5,3.1-3.2,3.1c-1.5,0-2.4-0.6-3.1-1.2
		L105.7,24.5z"/>
	<path class="st24" d="M230.2,137.7c-0.3-0.4-0.9-0.7-1.4-0.7c-1.1,0-2,0.8-2.1,3.3c0.5-0.7,1.3-1.1,1.9-1.1c1.6,0,2.6,0.9,2.6,2.8
		c0,1.8-1.3,3-2.8,3c-1.8,0-3.3-1.4-3.3-4.4c0-3.5,1.7-4.9,3.5-4.9c1.1,0,1.9,0.5,2.4,1L230.2,137.7z M229.7,142.1
		c0-1.1-0.5-1.6-1.4-1.6c-0.5,0-1.1,0.3-1.6,1c0.2,1.6,0.8,2.3,1.7,2.3C229.1,143.8,229.7,143.2,229.7,142.1z"/>
	<path class="st24" d="M52.4,195.5h-4.2v-1.4h6v1c-2.1,2.6-2.5,4.5-2.6,8h-1.7C50,199.9,50.6,197.9,52.4,195.5z"/>
	<path class="st24" d="M21.6,142.5L21.6,142.5c-0.7-0.6-1.2-1.2-1.2-2.2c0-1.5,1.2-2.4,2.7-2.4c1.6,0,2.6,1,2.6,2.4
		c0,0.9-0.6,1.6-1.2,2.1v0.1c0.8,0.5,1.6,1.1,1.6,2.3c0,1.4-1.2,2.4-3,2.4s-3-1-3-2.5C20,143.7,20.7,142.9,21.6,142.5z M23,146.1
		c0.9,0,1.5-0.5,1.5-1.3c0-1-0.9-1.3-2.2-1.8c-0.6,0.4-1,1-1,1.7C21.4,145.5,22.1,146.1,23,146.1z M24.3,140.5
		c0-0.8-0.5-1.4-1.3-1.4c-0.7,0-1.2,0.5-1.2,1.2c0,0.9,0.8,1.3,1.8,1.7C24.1,141.5,24.3,141,24.3,140.5z"/>
	<path class="st24" d="M49.1,53c0.3,0.4,0.9,0.7,1.4,0.7c1.1,0,2-0.8,2.1-3.3c-0.5,0.6-1.3,1-2,1c-1.5,0-2.6-0.9-2.6-2.8
		c0-1.8,1.3-2.9,2.8-2.9c1.8,0,3.2,1.4,3.2,4.4c0,3.5-1.7,4.9-3.5,4.9c-1.1,0-1.9-0.5-2.4-1L49.1,53z M52.6,49.2
		C52.5,47.6,51.8,47,51,47c-0.7,0-1.3,0.6-1.3,1.7c0,1.1,0.5,1.6,1.4,1.6C51.5,50.3,52.2,50,52.6,49.2z"/>
	<g>
		<path class="st24" d="M211.4,175.5h2v-5.9h-1.7v-1c0.9-0.2,1.5-0.4,2.1-0.7h1.2v7.7h1.8v1.3h-5.4L211.4,175.5L211.4,175.5z"/>
		<path class="st24" d="M218.2,172.3c0-3,1.2-4.6,3-4.6c1.9,0,3,1.6,3,4.6s-1.2,4.7-3,4.7S218.2,175.4,218.2,172.3z M222.7,172.3
			c0-2.5-0.6-3.3-1.5-3.3s-1.5,0.8-1.5,3.3s0.6,3.4,1.5,3.4C222.1,175.8,222.7,174.9,222.7,172.3z"/>
	</g>
	<path class="st24" d="M15.8,115h2v-5.9h-1.7v-1c0.9-0.2,1.5-0.4,2.1-0.7h1.2v7.7h1.8v1.3h-5.4C15.8,116.4,15.8,115,15.8,115z"/>
	<path class="st24" d="M23,115h2v-5.9h-1.7v-1c0.9-0.2,1.5-0.4,2.1-0.7h1.2v7.7h1.8v1.3H23V115z"/>
	<g>
		<path class="st24" d="M73.1,34.5h2v-5.9h-1.7v-1c0.9-0.2,1.5-0.4,2.1-0.7h1.2v7.7h1.8v1.3h-5.4V34.5z"/>
		<path class="st24" d="M79.8,34.9c2.5-2.4,4.1-4,4.1-5.4c0-0.9-0.5-1.6-1.5-1.6c-0.7,0-1.3,0.5-1.7,1L79.8,28
			c0.8-0.9,1.6-1.4,2.9-1.4c1.7,0,2.8,1.1,2.8,2.8c0,1.6-1.5,3.2-3.3,5.1c0.5,0,1.1-0.1,1.5-0.1h2.2v1.4h-6.1V34.9z"/>
	</g>
	<g>
		<path class="st24" d="M223.9,112.7h2v-5.9h-1.7v-1c0.9-0.2,1.5-0.4,2.1-0.7h1.2v7.7h1.8v1.3h-5.4L223.9,112.7L223.9,112.7z"/>
		<path class="st24" d="M231.2,111.9c0.5,0.6,1.2,1,2.1,1c1,0,1.7-0.5,1.7-1.4s-0.6-1.5-2.6-1.5v-1.2c1.8,0,2.3-0.6,2.3-1.4
			c0-0.7-0.5-1.2-1.3-1.2c-0.7,0-1.3,0.3-1.8,0.8l-0.8-1c0.8-0.7,1.6-1.1,2.7-1.1c1.7,0,2.9,0.8,2.9,2.4c0,1-0.6,1.7-1.6,2.1v0.1
			c1.1,0.3,1.9,1,1.9,2.2c0,1.6-1.4,2.6-3.1,2.6c-1.5,0-2.4-0.6-3-1.3L231.2,111.9z"/>
	</g>
	<g>
		<path class="st24" d="M25.1,81.9h2V76h-1.7v-1c0.9-0.2,1.5-0.4,2.1-0.7h1.2V82h1.8v1.3h-5.4V81.9z"/>
		<path class="st24" d="M38.2,80.9h-1.1v2.3h-1.5v-2.3h-4v-1.1l3.6-5.6h1.9v5.4h1.1V80.9z M35.5,79.6v-2c0-0.5,0-1.3,0.1-1.9h-0.1
			c-0.2,0.5-0.5,0.9-0.7,1.4l-1.6,2.5H35.5z"/>
	</g>
	<g>
		<path class="st24" d="M193.9,202.6h2v-5.9h-1.7v-1c0.9-0.2,1.5-0.4,2.1-0.7h1.2v7.7h1.8v1.3h-5.4L193.9,202.6L193.9,202.6z"/>
		<path class="st24" d="M201.2,201.8c0.5,0.5,1.2,1,2.1,1c1,0,1.7-0.6,1.7-1.7c0-1.1-0.7-1.7-1.7-1.7c-0.6,0-0.9,0.2-1.4,0.5
			l-0.8-0.5l0.3-4.4h4.8v1.4h-3.4l-0.2,2.2c0.4-0.2,0.7-0.3,1.2-0.3c1.5,0,2.8,0.9,2.8,2.8c0,2-1.5,3.1-3.2,3.1
			c-1.5,0-2.4-0.6-3.1-1.2L201.2,201.8z"/>
	</g>
	<g>
		<path class="st24" d="M26.6,175.5h2v-5.9h-1.7v-1c0.9-0.2,1.5-0.4,2.1-0.7h1.2v7.7H32v1.3h-5.4V175.5z"/>
		<path class="st24" d="M38.4,169.7c-0.3-0.4-0.9-0.7-1.4-0.7c-1.1,0-2,0.8-2.1,3.3c0.5-0.7,1.3-1.1,1.9-1.1c1.6,0,2.6,0.9,2.6,2.8
			c0,1.8-1.3,3-2.8,3c-1.8,0-3.3-1.4-3.3-4.4c0-3.5,1.7-4.9,3.5-4.9c1.1,0,1.9,0.5,2.4,1L38.4,169.7z M37.9,174.1
			c0-1.1-0.5-1.6-1.4-1.6c-0.5,0-1.1,0.3-1.6,1c0.2,1.6,0.8,2.3,1.7,2.3C37.4,175.8,37.9,175.2,37.9,174.1z"/>
	</g>
	<g>
		<path class="st24" d="M136.9,230.7h2v-5.9h-1.7v-1c0.9-0.2,1.5-0.4,2.1-0.7h1.2v7.7h1.8v1.3h-5.4L136.9,230.7L136.9,230.7z"/>
		<path class="st24" d="M148,224.4h-4.2V223h6v1c-2.1,2.6-2.5,4.5-2.6,8h-1.7C145.7,228.9,146.3,226.8,148,224.4z"/>
	</g>
	<g>
		<path class="st24" d="M195.3,55.4h2v-5.9h-1.7v-1c0.9-0.2,1.5-0.4,2.1-0.7h1.2v7.7h1.8v1.3h-5.4L195.3,55.4L195.3,55.4z"/>
		<path class="st24" d="M203.7,52.2L203.7,52.2c-0.7-0.6-1.2-1.2-1.2-2.2c0-1.5,1.2-2.4,2.7-2.4c1.6,0,2.6,1,2.6,2.4
			c0,0.9-0.6,1.6-1.2,2.1v0.1c0.8,0.5,1.6,1.1,1.6,2.3c0,1.4-1.2,2.4-3,2.4c-1.7,0-3-1-3-2.5C202.1,53.4,202.9,52.6,203.7,52.2z
			 M205.2,55.8c0.9,0,1.5-0.5,1.5-1.3c0-1-0.9-1.3-2.2-1.8c-0.6,0.4-1,1-1,1.7C203.5,55.2,204.2,55.8,205.2,55.8z M206.5,50.1
			c0-0.8-0.5-1.4-1.3-1.4c-0.7,0-1.2,0.5-1.2,1.2c0,0.9,0.8,1.3,1.8,1.7C206.2,51.2,206.5,50.7,206.5,50.1z"/>
	</g>
	<g>
		<path class="st24" d="M74.3,220.8h2v-5.9h-1.7v-1c0.9-0.2,1.5-0.4,2.1-0.7h1.2v7.7h1.8v1.3h-5.4V220.8z"/>
		<path class="st24" d="M82,220.3c0.3,0.4,0.9,0.7,1.4,0.7c1.1,0,2-0.8,2.1-3.3c-0.5,0.6-1.3,1-2,1c-1.5,0-2.6-0.9-2.6-2.8
			c0-1.8,1.3-2.9,2.8-2.9c1.8,0,3.2,1.4,3.2,4.4c0,3.5-1.7,4.9-3.5,4.9c-1.1,0-1.9-0.5-2.4-1L82,220.3z M85.5,216.5
			c-0.2-1.6-0.8-2.3-1.7-2.3c-0.7,0-1.3,0.6-1.3,1.7c0,1.1,0.5,1.6,1.4,1.6C84.4,217.5,85,217.2,85.5,216.5z"/>
	</g>
	<g>
		<path class="st24" d="M136.5,24.6c2.5-2.4,4.1-4,4.1-5.4c0-0.9-0.5-1.6-1.5-1.6c-0.7,0-1.3,0.5-1.7,1l-0.9-0.9
			c0.8-0.9,1.6-1.4,2.9-1.4c1.7,0,2.8,1.1,2.8,2.8c0,1.6-1.5,3.2-3.3,5.1c0.5,0,1.1-0.1,1.5-0.1h2.2v1.4h-6.1V24.6z"/>
		<path class="st24" d="M143.8,21c0-3,1.2-4.6,3-4.6c1.9,0,3,1.6,3,4.6s-1.2,4.7-3,4.7C144.9,25.7,143.8,24,143.8,21z M148.3,21
			c0-2.5-0.6-3.3-1.5-3.3s-1.5,0.8-1.5,3.3s0.6,3.4,1.5,3.4S148.3,23.5,148.3,21z"/>
	</g>
</g>
</svg>
