<?xml version="1.0" encoding="UTF-8"?>
<svg id="i" data-name="dartkeeper" xmlns="http://www.w3.org/2000/svg" viewBox="0 0 283.46 283.46">
  <defs>
    <style>
      .j {
        fill: #d99d13;
      }

      .j, .k, .l, .m, .n {
        stroke-width: 0px;
      }

      .o, .p, .q, .r, .s {
        stroke-miterlimit: 10;
      }

      .o, .q {
        stroke: #132034;
        stroke-width: 10px;
      }

      .o, .r, .s {
        fill: #fff;
      }

      .k {
        fill: #9b9b9b;
      }

      .l {
        fill: #12add1;
      }

      .m, .q {
        fill: #d99d13;
      }

      .p {
        stroke: #fff;
      }

      .p, .n {
        fill: #132034;
      }

      .r {
        stroke: red;
        stroke-width: 26px;
      }

      .s {
        stroke: #12add1;
        stroke-width: 32px;
      }
    </style>
  </defs>
  <path class="j" d="M70.25,158.21h144.06c32.65,0,59.16,26.51,59.16,59.16v58.13c0,.73-.6,1.33-1.33,1.33H11.09v-59.46c0-32.65,26.51-59.16,59.16-59.16Z" transform="translate(284.57 435.05) rotate(180)"/>
  <path class="l" d="M69.63,7.02h144.06c32.65,0,59.16,26.51,59.16,59.16v58.13c0,.73-.6,1.33-1.33,1.33H10.46v-59.46c0-32.65,26.51-59.16,59.16-59.16Z"/>
  <circle class="o" cx="141.73" cy="141.73" r="100.74"/>
  <circle class="r" cx="141.73" cy="141.73" r="83.62"/>
  <circle class="s" cx="141.73" cy="141.73" r="42.52"/>
  <circle class="q" cx="141.73" cy="141.73" r="25.51"/>
  <path class="n" d="M17.32,142.67c27.29-.06,54.58-.12,81.87-.18,5.79-.01,5.8-9.01,0-9-27.29.06-54.58.12-81.87.18-5.79.01-5.8,9.01,0,9h0Z"/>
  <path class="n" d="M137.4,13.84v81.87c0,5.79,9,5.8,9,0V13.84c0-5.79-9-5.8-9,0h0Z"/>
  <path class="n" d="M189.81,142.57c27.29-.06,54.58-.12,81.87-.18,5.79-.01,5.8-9.01,0-9-27.29.06-54.58.12-81.87.18-5.79.01-5.8,9.01,0,9h0Z"/>
  <g>
    <path class="k" d="M143.03,151.62s-4.76-10.91-3.84-11.51c.93-.61,6.11,10.02,6.11,10.02l-2.27,1.49Z"/>
    <path class="m" d="M152.87,212.87c-3.19-7.65-5.01-19.53,6.84-27.31l.71-.46c11.85-7.78,19.28.41,23,7.71,1.82,3.57.56,8.23-2.66,9.87-2.84,1.44-4.95,2.03-6.5,1.99-1.78-.04-4.48-.73-6.7-3.11.5,3.51-.46,6.6-1.38,8.42-.81,1.59-2.35,3.4-4.89,5.49-2.88,2.37-6.86,1.14-8.41-2.6Z"/>
    <path class="p" d="M141.78,160.6s20.04,34.75,20.04,34.75c1.78,2.93,5.52.48,4.4-2.89l-13.9-38.78c-1.45-4.14-5.9-5.7-8.99-3.11-2.75,2.26-3.45,6.75-1.55,10.03Z"/>
  </g>
</svg>