<?xml version="1.0" encoding="UTF-8"?>
<svg id="j" data-name="Calque 10" xmlns="http://www.w3.org/2000/svg" viewBox="0 0 55.21 83.63">
  <defs>
    <style>
      .k {
        fill: #d99d13;
      }

      .k, .l {
        stroke-width: 0px;
      }

      .l {
        fill: #9b9b9b;
      }

      .m {
        fill: #132034;
        stroke: #fff;
        stroke-miterlimit: 10;
      }
    </style>
  </defs>
  <path class="l" d="M8.9,15.08S4.09,4.19,5,3.59c.93-.61,6.16,9.99,6.16,9.99l-2.26,1.5h0Z"/>
  <path class="k" d="M19.01,76.28c-3.22-7.64-5.1-19.51,6.72-27.34l.71-.46c11.81-7.83,19.28.32,23.03,7.61,1.84,3.56.6,8.23-2.62,9.88-2.83,1.45-4.94,2.05-6.49,2.02-1.78-.03-4.48-.71-6.71-3.08.52,3.51-.43,6.6-1.34,8.43-.8,1.59-2.33,3.41-4.87,5.51-2.87,2.38-6.85,1.17-8.42-2.56h0Z"/>
  <path class="m" d="M7.69,24.06l20.2,34.66c1.79,2.92,5.52.46,4.39-2.91l-14.07-38.72c-1.47-4.13-5.93-5.67-9-3.07-2.74,2.27-3.42,6.77-1.5,10.04Z"/>
</svg>